
<svg width="32" height="32" viewBox="0 0 32 32" fill="none" xmlns="http://www.w3.org/2000/svg">
<path d="M16 16.9998C11.7734 16.9998 8.33337 13.5598 8.33337 9.33317C8.33337 5.1065 11.7734 1.6665 16 1.6665C20.2267 1.6665 23.6667 5.1065 23.6667 9.33317C23.6667 13.5598 20.2267 16.9998 16 16.9998ZM16 3.6665C12.88 3.6665 10.3334 6.21317 10.3334 9.33317C10.3334 12.4532 12.88 14.9998 16 14.9998C19.12 14.9998 21.6667 12.4532 21.6667 9.33317C21.6667 6.21317 19.12 3.6665 16 3.6665Z" fill="white"/>
<path d="M4.54688 30.3333C4.00021 30.3333 3.54688 29.88 3.54688 29.3333C3.54688 23.64 9.13358 19 16.0002 19C16.5469 19 17.0002 19.4533 17.0002 20C17.0002 20.5467 16.5469 21 16.0002 21C10.2402 21 5.54688 24.7333 5.54688 29.3333C5.54688 29.88 5.09354 30.3333 4.54688 30.3333Z" fill="white"/>
<path d="M24.2667 28.7834C21.7742 28.7834 19.75 26.7591 19.75 24.2667C19.75 21.7742 21.7742 19.75 24.2667 19.75C26.7591 19.75 28.7834 21.7742 28.7834 24.2667C28.7834 26.7591 26.7591 28.7834 24.2667 28.7834ZM24.2667 20.25C22.0525 20.25 20.25 22.0525 20.25 24.2667C20.25 26.4809 22.0525 28.2834 24.2667 28.2834C26.4809 28.2834 28.2834 26.4809 28.2834 24.2667C28.2834 22.0525 26.4809 20.25 24.2667 20.25Z" fill="white" stroke="white" stroke-width="1.5"/>
<path d="M29.3333 30.3335C29.08 30.3335 28.8266 30.2402 28.6266 30.0402L27.2933 28.7068C26.9066 28.3202 26.9066 27.6801 27.2933 27.2934C27.68 26.9068 28.32 26.9068 28.7067 27.2934L30.04 28.6268C30.4267 29.0134 30.4267 29.6535 30.04 30.0402C29.84 30.2402 29.5867 30.3335 29.3333 30.3335Z" fill="white"/>
</svg>
