<svg width="32" height="32" viewBox="0 0 32 32" fill="none" xmlns="http://www.w3.org/2000/svg">
<path d="M15.9999 18.6665C9.31988 18.6665 3.87988 23.1465 3.87988 28.6665C3.87988 29.0398 4.17322 29.3332 4.54655 29.3332H27.4532C27.8266 29.3332 28.1199 29.0398 28.1199 28.6665C28.1199 23.1465 22.6799 18.6665 15.9999 18.6665Z" fill="white"/>
<path d="M22.2933 13.7998L21.0133 12.5198C21.6799 11.5198 22.0666 10.3198 22.0666 9.0265C22.0666 5.5065 19.2133 2.6665 15.7066 2.6665C12.1999 2.6665 9.33325 5.51984 9.33325 9.0265C9.33325 12.5332 12.1866 15.3865 15.6933 15.3865C16.9866 15.3865 18.1866 14.9998 19.1866 14.3332L20.4666 15.6132C20.7199 15.8665 21.0533 15.9865 21.3733 15.9865C21.7066 15.9865 22.0399 15.8665 22.2799 15.6132C22.7866 15.1198 22.7866 14.3065 22.2933 13.7998Z" fill="white"/>
</svg>